<?xml version="1.0" encoding="utf-8"?>
<!-- Svg Vector Icons : http://www.onlinewebfonts.com/icon -->
<!DOCTYPE svg PUBLIC "-//W3C//DTD SVG 1.1//EN" "http://www.w3.org/Graphics/SVG/1.1/DTD/svg11.dtd">
<svg version="1.1" xmlns="http://www.w3.org/2000/svg" xmlns:xlink="http://www.w3.org/1999/xlink" x="0px" y="0px" viewBox="0 0 1000 1000" enable-background="new 0 0 1000 1000" xml:space="preserve">
<metadata> Svg Vector Icons : http://www.onlinewebfonts.com/icon </metadata>
<g><g transform="translate(0.000000,511.000000) scale(0.100000,-0.100000)"><path d="M3402.6,4990.3c-445.9-121.3-700.2-522.2-678.7-1065.9c5.9-148.6,17.6-207.3,58.7-297.3c95.8-209.3,314.9-377.5,596.5-459.6c99.7-29.3,269.9-35.2,1345.6-43c1431.7-13.7,1283,11.7,1545.1-254.3l156.5-158.4l-3102-3105.9C-233.4-3955.9,108.9-3572.5,108.9-3977.4c0-211.2,3.9-232.8,62.6-356C281-4566.1,447.3-4705,695.7-4769.5c211.2-54.8,418.5-29.3,625.9,72.4c103.7,50.8,485.1,426.4,3201.8,3141.1l3086.4,3084.4l156.5-156.5c86.1-86.1,172.1-185.8,189.7-224.9c31.3-62.6,37.1-176,46.9-1300.6c9.8-1095.3,15.7-1245.9,45-1347.6c142.8-481.2,471.3-708,946.6-655.2c289.5,33.2,461.6,103.7,625.9,258.2c199.5,189.7,279.7,393.1,279.7,708c-2,107.6-31.3,891.9-70.4,1742.7c-76.3,1723.1-72.4,1691.8-224.9,1916.7c-41.1,64.5-172.1,211.2-291.4,328.6l-215.2,213.2l88,99.8c48.9,54.8,121.3,166.3,160.4,244.5c70.4,140.8,72.4,154.5,72.4,352.1c0,195.6-3.9,215.1-66.5,338.4c-80.2,162.3-267.9,348.1-420.5,418.6c-58.7,27.4-160.4,56.7-224.9,68.5c-230.8,37.1-532-68.5-706.1-246.4l-86.1-86.1l-264,258.2c-279.7,271.9-410.7,357.9-612.2,402.9c-93.9,21.5-3094.2,160.4-3387.6,156.5C3564.9,5017.7,3451.5,5003.9,3402.6,4990.3z M5509.1,4561.9c1386.7-60.6,1474.7-66.5,1554.9-105.6c60.6-29.3,402.9-359.9,1175.5-1132.5c1066-1069.8,1089.4-1093.3,1116.8-1198.9c21.5-78.2,48.9-545.7,99.8-1760.3c66.5-1541.2,68.5-1660.5,41.1-1756.4c-72.4-240.6-332.5-395.1-665-395.1c-109.5,0-281.7,88-336.4,174.1c-90,135-91.9,146.7-103.7,1459.1c-9.8,1222.4-11.7,1253.7-52.8,1363.2c-23.5,62.6-74.3,160.4-111.5,215.1c-37.1,56.7-475.3,510.5-974,1005.3c-721.7,719.8-927.1,913.4-1011.2,956.4c-246.4,123.2-156.5,115.4-1517.8,127.1c-897.7,7.8-1271.3,17.6-1322.2,35.2c-113.4,37.2-199.5,105.6-252.3,199.5c-41.1,72.4-48.9,113.4-46.9,234.7c2,273.8,103.7,487,279.7,584.8c125.2,68.5,181.9,78.2,432.2,66.5C3938.5,4628.4,4701.3,4595.2,5509.1,4561.9z M8836,4102.3c142.8-72.4,236.7-271.9,213.2-449.8c-13.7-101.7-80.2-221-166.3-305.1l-62.6-56.7l-316.9,316.8l-314.9,316.9l76.3,80.2c115.4,119.3,207.3,158.4,361.8,148.6C8705,4147.3,8785.2,4129.7,8836,4102.3z M4271-1264.6C2583.1-2952.5,1169-4352.9,1126-4378.4c-174.1-101.7-338.4-80.2-502.7,66.5c-160.4,144.7-211.2,316.8-142.8,487C502-3774,1401.7-2862.6,3606-658.3l3094.2,3096.1l316.9-316.9l318.8-318.8L4271-1264.6z"/></g></g>
</svg>